HIERARCHY
ROOT Hips
{
	OFFSET 49.667400 -46.181816 100.938995
	CHANNELS 6 Xposition Yposition Zposition Xrotation Yrotation Zrotation
	JOINT spine
	{
		OFFSET 0.000000 -0.507027 8.817047
		CHANNELS 3 Xrotation Yrotation Zrotation
		JOINT spine1
		{
			OFFSET 0.000000 0.000000 10.776604
			CHANNELS 3 Xrotation Yrotation Zrotation
			JOINT spine2
			{
				OFFSET 0.000000 -0.000004 10.325905
				CHANNELS 3 Xrotation Yrotation Zrotation
				JOINT Neck
				{
					OFFSET 0.000000 -1.263954 26.510986
					CHANNELS 3 Xrotation Yrotation Zrotation
					JOINT Head
					{
						OFFSET 0.000000 0.000000 8.009659
						CHANNELS 3 Xrotation Yrotation Zrotation
						End Site
						{
							OFFSET 0.000000 6.393856 19.387909
						}
					}
				}
				JOINT RightShoulder
				{
					OFFSET -4.347950 0.605423 11.151199
					CHANNELS 3 Xrotation Yrotation Zrotation
					JOINT RightArm
					{
						OFFSET 0.000000 -0.000004 14.625793
						CHANNELS 3 Xrotation Yrotation Zrotation
						JOINT RightArmRoll
						{
							OFFSET 0.000000 0.000000 7.383408
							CHANNELS 3 Xrotation Yrotation Zrotation
							JOINT RightForeArm
							{
								OFFSET 0.000000 -0.000004 21.505203
								CHANNELS 3 Xrotation Yrotation Zrotation
								JOINT RightForeArmRoll
								{
									OFFSET 0.000000 0.000000 8.285324
									CHANNELS 3 Xrotation Yrotation Zrotation
									JOINT RightHand
									{
										OFFSET 0.000000 -0.000004 16.626801
										CHANNELS 3 Xrotation Yrotation Zrotation
										End Site
										{
											OFFSET 0.000000 0.000000 0.100006
										}
									}
								}
							}
						}
					}
				}
				JOINT LeftShoulder
				{
					OFFSET 4.347950 0.605423 11.151199
					CHANNELS 3 Xrotation Yrotation Zrotation
					JOINT LeftArm
					{
						OFFSET 0.000000 -0.000004 14.625793
						CHANNELS 3 Xrotation Yrotation Zrotation
						JOINT LeftArmRoll
						{
							OFFSET 0.000000 0.000000 7.383408
							CHANNELS 3 Xrotation Yrotation Zrotation
							JOINT LeftForeArm
							{
								OFFSET 0.000000 -0.000004 21.505203
								CHANNELS 3 Xrotation Yrotation Zrotation
								JOINT LeftForeArmRoll
								{
									OFFSET 0.000000 0.000000 8.285324
									CHANNELS 3 Xrotation Yrotation Zrotation
									JOINT LeftHand
									{
										OFFSET 0.000000 -0.000004 16.626801
										CHANNELS 3 Xrotation Yrotation Zrotation
										End Site
										{
											OFFSET 0.000000 0.000000 0.100006
										}
									}
								}
							}
						}
					}
				}
			}
		}
	}
	JOINT RightUpLeg
	{
		OFFSET -7.815102 1.202171 -1.433090
		CHANNELS 3 Xrotation Yrotation Zrotation
		JOINT RightUpLegRoll
		{
			OFFSET 0.000000 -0.000004 19.495903
			CHANNELS 3 Xrotation Yrotation Zrotation
			JOINT RightLeg
			{
				OFFSET 0.000000 0.000004 -24.142700
				CHANNELS 3 Xrotation Yrotation Zrotation
				JOINT RightLegRoll
				{
					OFFSET 0.000000 -0.000004 24.221703
					CHANNELS 3 Xrotation Yrotation Zrotation
					JOINT RightFoot
					{
						OFFSET 0.000000 -0.000004 20.160507
						CHANNELS 3 Xrotation Yrotation Zrotation
						JOINT RightToeBase
						{
							OFFSET 0.000000 -0.000004 16.853195
							CHANNELS 3 Xrotation Yrotation Zrotation
							End Site
							{
								OFFSET 0.007145 0.940781 8.161865
							}
						}
					}
				}
			}
		}
	}
	JOINT LeftUpLeg
	{
		OFFSET 7.815102 1.202171 -1.433090
		CHANNELS 3 Xrotation Yrotation Zrotation
		JOINT LeftUpLegRoll
		{
			OFFSET 0.000000 -0.000004 19.496002
			CHANNELS 3 Xrotation Yrotation Zrotation
			JOINT LeftLeg
			{
				OFFSET 0.000000 -0.000004 24.142609
				CHANNELS 3 Xrotation Yrotation Zrotation
				JOINT LeftLegRoll
				{
					OFFSET 0.000000 -0.000004 24.445602
					CHANNELS 3 Xrotation Yrotation Zrotation
					JOINT LeftFoot
					{
						OFFSET 0.000000 -0.000004 19.936600
						CHANNELS 3 Xrotation Yrotation Zrotation
						JOINT LeftToeBase
						{
							OFFSET 0.000000 -0.000004 16.853195
							CHANNELS 3 Xrotation Yrotation Zrotation
							End Site
							{
								OFFSET -0.032013 0.940781 8.161865
							}
						}
					}
				}
			}
		}
	}
}
MOTION
Frames: 9
Frame Time: 0.041667
50.624805 -19.608612 69.433395 36.507204 1.002943 2.167896 1.895017 -0.555644 -0.114944 7.792125 -1.115170 -0.206160 9.437333 -1.117560 -0.192785 -0.495526 5.620851 0.447861 -8.443856 2.315613 -0.368538 -7.031809 -39.509612 -6.584600 158.312474 -51.979515 125.277854 0.000002 0.000009 0.000001 75.166136 -2.208335 0.638201 0.000002 0.000003 -3.005511 -5.000180 -7.998676 0.000134 -12.197995 49.309263 13.959816 -37.006993 124.003833 70.715305 0.000001 -0.000001 -0.000001 68.111159 5.588564 -1.928095 0.000009 -0.000004 3.009739 -5.000232 7.998791 -0.000136 -106.603721 -170.226387 -0.797239 179.999991 0.000005 -0.630995 96.839863 -4.865973 -5.314037 -0.000004 0.000002 1.270310 77.390701 7.174638 0.482206 25.458564 -7.355269 0.008538 -105.138796 178.090325 -1.170957 -0.000005 -0.000005 -0.748691 -87.130285 0.322877 1.602211 -0.000011 -0.000002 -1.774380 82.536744 -6.538205 -2.162493 25.877054 7.345267 -0.047910 
50.618904 -19.657207 69.603485 36.457398 1.004102 2.161897 1.886187 -0.553778 -0.115711 7.774447 -1.111501 -0.208258 9.419674 -1.113918 -0.194927 -0.508778 5.683327 0.447205 -8.456712 2.274861 -0.376567 -7.029343 -39.533237 -6.583714 157.947305 -51.855271 125.212380 -0.000001 0.000008 0.000001 74.795093 -2.442052 0.813075 0.000002 0.000004 -3.005511 -5.000183 -7.998673 0.000134 -12.198443 49.407877 13.965422 -37.259669 124.078145 70.733569 0.000002 -0.000001 -0.000000 67.875913 5.745701 -2.022780 0.000008 -0.000005 3.009739 -5.000228 7.998796 -0.000136 -106.319729 -170.252601 -0.787970 179.999991 0.000005 -0.630995 97.047931 -4.885170 -5.317967 -0.000002 0.000002 1.266091 77.413535 7.172538 0.486324 25.458559 -7.355267 0.008537 -104.863000 178.072471 -1.152204 -0.000008 -0.000005 -0.747635 -86.912532 0.354309 1.630083 -0.000008 -0.000002 -1.768650 82.538697 -6.541196 -2.150678 25.884131 7.345283 -0.048940 
50.618404 -19.723911 69.764595 36.407097 1.004617 2.155890 1.877117 -0.551606 -0.116493 7.756286 -1.107239 -0.210487 9.401505 -1.109685 -0.197207 -0.517242 5.742128 0.448128 -8.475529 2.239062 -0.382341 -7.029052 -39.557515 -6.585736 157.581890 -51.730606 125.144078 -0.000001 0.000007 -0.000003 74.412438 -2.675464 0.986537 0.000004 0.000006 -3.005510 -5.000182 -7.998677 0.000132 -12.197920 49.505300 13.969752 -37.503664 124.152485 70.740522 0.000003 -0.000002 0.000001 67.645053 5.902618 -2.115369 0.000007 -0.000007 3.009737 -5.000230 7.998793 -0.000136 -106.034753 -170.279075 -0.778726 179.999991 0.000005 -0.629998 97.257843 -4.904292 -5.322778 -0.000004 0.000003 1.261850 77.435043 7.170546 0.490438 25.458562 -7.355268 0.008536 -104.585988 178.054453 -1.133183 -0.000007 -0.000005 -0.746605 -86.693351 0.386284 1.658111 -0.000010 -0.000002 -1.762850 82.539776 -6.544267 -2.138618 25.891304 7.345304 -0.050070 
50.609703 -19.786915 69.930183 36.356281 1.004612 2.149827 1.867816 -0.549169 -0.117303 7.737674 -1.102462 -0.212851 9.382888 -1.104940 -0.199629 -0.521854 5.797600 0.450488 -8.499021 2.207641 -0.386096 -7.030531 -39.582886 -6.590175 157.216447 -51.605505 125.073126 0.000003 0.000008 -0.000002 74.019067 -2.908722 1.158353 0.000001 0.000004 -3.005509 -5.000181 -7.998672 0.000131 -12.196704 49.601595 13.973180 -37.739999 124.227112 70.737414 0.000000 0.000001 -0.000001 67.417218 6.059241 -2.206108 0.000007 -0.000004 3.009739 -5.000231 7.998796 -0.000135 -105.748820 -170.305795 -0.770111 179.999991 0.000005 -0.629998 97.469545 -4.923291 -5.326420 -0.000004 0.000002 1.257581 77.455315 7.168586 0.494439 25.458564 -7.355269 0.008538 -104.307705 178.036203 -1.114656 -0.000007 -0.000005 -0.745597 -86.472729 0.418760 1.686257 -0.000011 -0.000002 -1.756980 82.540015 -6.547424 -2.126107 25.898570 7.345314 -0.051289 
50.606205 -19.849209 70.088799 36.304665 1.004222 2.143658 1.858301 -0.546513 -0.118153 7.718647 -1.097260 -0.215357 9.363856 -1.099762 -0.202199 -0.523556 5.850147 0.454149 -8.525910 2.179994 -0.388067 -7.033303 -39.609479 -6.596463 156.851360 -51.480078 124.999729 -0.000002 0.000007 0.000001 73.616127 -3.141897 1.328377 0.000003 0.000007 -3.005506 -5.000183 -7.998672 0.000132 -12.195077 49.696842 13.976037 -37.968970 124.302121 70.724963 0.000001 -0.000002 0.000002 67.191214 6.215458 -2.295368 0.000007 -0.000006 3.009737 -5.000231 7.998794 -0.000133 -105.461727 -170.332801 -0.762429 179.999991 0.000005 -0.629001 97.683262 -4.942240 -5.328920 -0.000003 0.000002 1.253300 77.474289 7.166782 0.498337 25.458562 -7.355269 0.008536 -104.028187 178.017652 -1.096434 -0.000007 -0.000005 -0.744612 -86.250761 0.451681 1.714468 -0.000009 -0.000002 -1.751050 82.539250 -6.550679 -2.113466 25.905955 7.345340 -0.052583 
50.617004 -19.883707 70.260681 36.252346 1.003556 2.137366 1.848613 -0.543680 -0.119055 7.699259 -1.091701 -0.218011 9.344477 -1.094238 -0.204920 -0.523309 5.900107 0.458981 -8.554872 2.155530 -0.388483 -7.036994 -39.637623 -6.604092 156.486478 -51.355287 124.923504 -0.000002 0.000007 0.000001 73.204499 -3.375132 1.496518 0.000003 0.000003 -3.005511 -5.000177 -7.998673 0.000132 -12.193379 49.791201 13.978763 -38.192447 124.376966 70.705265 0.000000 0.000000 0.000001 66.965435 6.371140 -2.382890 0.000010 -0.000006 3.009735 -5.000231 7.998796 -0.000134 -105.173281 -170.360163 -0.754920 179.999991 0.000005 -0.629001 97.898618 -4.961253 -5.333268 -0.000004 0.000002 1.248990 77.492041 7.165066 0.502225 25.458564 -7.355269 0.008537 -103.747254 177.998801 -1.078415 -0.000005 -0.000005 -0.743647 -86.027346 0.484994 1.742709 -0.000009 -0.000002 -1.745061 82.537536 -6.554042 -2.100585 25.913526 7.345353 -0.053951 
50.615505 -19.953606 70.426788 36.199224 1.002729 2.130901 1.838763 -0.540712 -0.120022 7.679553 -1.085875 -0.220818 9.324755 -1.088448 -0.207797 -0.522039 5.947875 0.464855 -8.584621 2.133677 -0.387569 -7.041108 -39.667437 -6.612489 156.123057 -51.229363 124.845736 -0.000001 0.000007 0.000000 72.785228 -3.608498 1.662678 0.000002 0.000004 -3.005506 -5.000182 -7.998669 0.000133 -12.191880 49.884751 13.981691 -38.410740 124.451770 70.679214 0.000000 0.000001 -0.000002 66.738721 6.526262 -2.469119 0.000009 -0.000004 3.009738 -5.000230 7.998793 -0.000133 -104.883456 -170.387893 -0.746918 179.999991 0.000005 -0.628004 98.115749 -4.980166 -5.336475 -0.000003 0.000002 1.244660 77.508761 7.163344 0.506177 25.458562 -7.355267 0.008537 -103.465003 177.979553 -1.059577 -0.000007 -0.000005 -0.742701 -85.802558 0.518644 1.770945 -0.000009 -0.000002 -1.739000 82.534790 -6.557464 -2.087467 25.921306 7.345368 -0.055384 
50.600204 -20.030514 70.588402 36.145197 1.001878 2.124214 1.828771 -0.537655 -0.121065 7.659560 -1.079860 -0.223783 9.304770 -1.082471 -0.210836 -0.520719 5.993805 0.471646 -8.613877 2.113837 -0.385552 -7.045265 -39.699334 -6.621142 155.760401 -51.104210 124.765440 -0.000001 0.000006 0.000001 72.359236 -3.842038 1.826603 0.000001 0.000006 -3.005510 -5.000181 -7.998670 0.000135 -12.190883 49.977539 13.985185 -38.623873 124.527585 70.646539 -0.000001 -0.000000 -0.000000 66.509568 6.680754 -2.554178 0.000007 -0.000007 3.009740 -5.000233 7.998796 -0.000137 -104.591998 -170.416034 -0.738471 179.999991 0.000005 -0.628003 98.334705 -4.999178 -5.339517 -0.000003 0.000002 1.240320 77.524286 7.161758 0.510019 25.458562 -7.355267 0.008536 -103.181291 177.959855 -1.042013 -0.000008 -0.000005 -0.741774 -85.576301 0.552604 1.799129 -0.000007 -0.000002 -1.732891 82.531027 -6.560933 -2.074411 25.929092 7.345389 -0.056837 
50.597404 -20.088619 70.745789 36.090078 1.001126 2.117288 1.818670 -0.534551 -0.122198 7.639336 -1.073747 -0.226914 9.284554 -1.076385 -0.214041 -0.520269 6.038273 0.479237 -8.641326 2.095432 -0.382659 -7.048998 -39.733464 -6.629508 155.399262 -50.978995 124.683136 -0.000001 0.000009 -0.000002 71.927520 -4.075824 1.988243 0.000004 0.000002 -3.005510 -5.000178 -7.998673 0.000132 -12.190704 50.069743 13.989667 -38.833358 124.603838 70.609553 0.000002 -0.000002 0.000001 66.276679 6.834544 -2.637983 0.000009 -0.000006 3.009739 -5.000232 7.998794 -0.000136 -104.298860 -170.444680 -0.730993 179.999991 0.000006 -0.627006 98.555532 -5.018063 -5.342412 -0.000004 0.000002 1.235960 77.538794 7.160213 0.513832 25.458564 -7.355267 0.008537 -102.895987 177.939692 -1.023903 -0.000010 -0.000005 -0.740862 -85.348678 0.586789 1.827219 -0.000008 -0.000003 -1.726719 82.526150 -6.564512 -2.061125 25.937172 7.345402 -0.058347 
